# xmcd
# Copyright (C) 1995-1998 Ti Kan
#
# Track frame offsets:
#       150
#       29462
#       66983
#       96785
#       135628
#       168676
#       194147
#       222158
#       247076
#       278203
#
# Disc length: 4221 seconds
#
# Revision: 0
# Processed by: cddbd v1.5.2PL0 Copyright (c) Steve Scherf et al.
# Submitted via: CD-Import v1.0
#
DISCID=a1107b0a
DTITLE=Kruder and Dorfmeister - The K&d Sessions [CD1)
DYEAR=1998
DGENRE=
TTITLE0=Roni Size - Heroes (Kruder's Long Loose Bossa)
TTITLE1=Alex Reece - Jazz Master (K&d Session)
TTITLE2=Count Basic - Speechless (Drum 'n' Bass)
TTITLE3=Rocker's Hifi - Going Under (K&d Session)
TTITLE4=Bomb The Bass - Bug Powder Dust (K&d Session)
TTITLE5=Aphrodelics - Rollin' On Chrome (Wild Motherfucker Dub)
TTITLE6=Depeche Mode - Useless (K&d Session)
TTITLE7=Count Basic - Gotta Jazz
TTITLE8=Rainer Trüby Trio - Donaueschingen (Peter Kruder´s Donaudampfschiffahrtsgesellschaftskapitänskajütenremix)
TTITLE9=Lamb - Trans Fatty Acid (K&d Session)
EXTD=
EXTT0=
EXTT1=
EXTT2=
EXTT3=
EXTT4=
EXTT5=
EXTT6=
EXTT7=
EXTT8=
EXTT9=
PLAYORDER=
